<?xml version="1.0" encoding="UTF-8"?>
<svg data-bbox="0 0 1085.64 475" xmlns="http://www.w3.org/2000/svg" viewBox="0 0 1086 475" height="475" width="1086" data-type="color">
    <g>
        <path fill="#E66110" d="M1085.64 0H339.271v475h746.369z" data-color="1"/>
        <path fill="#ffffff" d="M1029 370.785v-17.874h-9.34v44.684h9.34v-19.948h10.69v19.948h9.33v-44.684h-9.33v17.874zm-41.336 26.81h8.298v-3.431h.08c1.596 3.032 3.988 4.069 7.338 4.069 9.02 0 8.7-10.054 8.7-16.437s.24-16.038-8.54-16.038c-3.19 0-5.344.957-7.099 3.59h-.16v-16.357h-8.697v44.683zm12.208-4.788c-2.952 0-3.511-3.271-3.511-11.171 0-6.224 0-10.612 3.511-10.612 3.748 0 3.748 4.309 3.748 10.612 0 7.82-.56 11.171-3.748 11.171m-49.152-26.491h-8.697v31.199h8.697v-21.544c0-2.793.479-4.947 3.272-4.947s3.271 2.154 3.271 4.947v21.544h8.538v-21.544c0-2.793.479-4.947 3.272-4.947s3.271 2.154 3.271 4.947v21.544h8.697V372.46c0-4.309-3.67-6.782-7.819-6.782-3.591 0-6.064 1.197-8.139 3.989-1.436-2.473-3.91-3.989-6.942-3.989-3.271 0-5.665.957-7.341 3.75h-.159v-3.112zm-16.038.319c.559-9.335-5.106-14.442-14.282-14.442-15.241 0-15.799 11.41-15.799 22.661 0 16.916 1.755 23.459 17.474 23.459 3.671 0 10.054-.958 12.607-1.516v-22.661H920.32v6.862h5.027v9.894c-1.437.479-3.112.878-4.628.878-5.346 0-6.703-2.474-6.703-16.437 0-8.698 0-16.517 5.825-16.517 4.947 0 5.665 3.67 5.585 7.819zm-81.068-.319h-8.697v31.199h8.697v-21.544c0-2.793.479-4.947 3.271-4.947 2.793 0 3.272 2.154 3.272 4.947v21.544h8.538v-21.544c0-2.793.478-4.947 3.271-4.947s3.271 2.154 3.271 4.947v21.544h8.698V372.46c0-4.309-3.671-6.782-7.82-6.782-3.59 0-6.064 1.197-8.139 3.989-1.436-2.473-3.909-3.989-6.941-3.989-3.272 0-5.666.957-7.341 3.75h-.16v-3.112zm-24.017 31.199h9.016c-.16-1.995-.319-4.149-.319-6.144v-25.055h-8.697v21.624c0 2.792-.479 4.787-3.272 4.787s-3.271-2.074-3.271-4.787v-21.624h-8.698v25.055c0 4.309 3.671 6.782 7.82 6.782 3.271 0 5.665-.957 7.341-3.75h.159v3.112zm-36.226-31.199v31.199h8.697v-16.996c0-3.112.16-7.58 7.82-7.022v-7.739c-3.511 0-6.463 1.037-8.139 4.628h-.159v-3.99h-8.299zm-20.985 5.346h3.511v19.23c0 1.915.957 6.942 8.537 6.942 2.155 0 3.352-.16 4.549-.319v-5.346c-.399.159-.958.159-1.516.159-2.873 0-2.793-1.516-2.793-3.909v-16.677h4.548v-5.346h-4.548v-8.857l-8.697 3.91v4.947h-3.511v5.346zm-18.99-5.346h-8.698v31.199h8.698v-21.544c0-2.793.478-4.947 3.271-4.947s3.271 2.154 3.271 4.947v21.544h8.698V372.46c0-4.309-3.671-6.782-7.74-6.782-1.596 0-3.032.239-4.309.878-1.197.558-2.234 1.516-3.112 2.952h-.159v-3.192zm-15.241 16.996c.32-9.974-.957-17.634-12.766-17.634s-12.767 7.261-12.767 15.799c0 9.814 1.516 16.596 12.767 16.596 4.069 0 7.181-1.117 9.255-3.032s3.192-4.707 3.352-8.059h-8.857c0 2.633-.638 5.586-3.75 5.586-3.83 0-3.99-5.586-3.99-9.256zm-16.676-4.867c0-2.634 0-7.341 3.989-7.341 3.99 0 3.99 4.308 3.99 7.341zm-13.405-12.129h-20.586v5.586h11.809l-12.208 19.469v6.144h21.224v-5.586h-12.607l12.448-19.469v-6.144zm-39.896 0v31.199h8.697v-16.996c0-3.112.16-7.58 7.82-7.022v-7.739c-3.511 0-6.463 1.037-8.059 4.628h-.16v-3.99h-8.298zm-6.463 16.996c.319-9.974-.958-17.634-12.767-17.634s-12.766 7.261-12.766 15.799c0 9.814 1.516 16.596 12.766 16.596 4.07 0 7.181-1.117 9.176-3.032 2.075-1.915 3.192-4.707 3.352-8.059h-8.857c0 2.633-.639 5.586-3.671 5.586-3.83 0-3.989-5.586-3.989-9.256zm-16.677-4.867c0-2.634 0-7.341 3.99-7.341s3.99 4.308 3.99 7.341zm-15.399 19.07v-44.684h-8.698v16.358h-.159c-1.756-2.633-3.99-3.591-7.102-3.591-8.777 0-8.537 9.735-8.537 16.038s-.32 16.437 8.697 16.437c3.351 0 5.745-1.037 7.341-4.069h.159v3.431h8.299zm-12.209-4.788c-3.191 0-3.75-3.271-3.75-11.171 0-6.223 0-10.612 3.75-10.612 3.591 0 3.511 4.309 3.511 10.612 0 7.82-.558 11.171-3.511 11.171m-34.15-26.491h-8.698v31.199h8.698v-21.544c0-2.793.478-4.947 3.271-4.947s3.272 2.154 3.272 4.947v21.544h8.697V372.38c0-4.308-3.671-6.782-7.82-6.782-1.596 0-3.032.239-4.309.878-1.196.558-2.234 1.516-3.111 2.952h-.16v-3.192zm-24.656 31.199h9.016c-.159-1.995-.319-4.149-.319-6.144v-25.055h-8.697v21.624c0 2.793-.479 4.787-3.271 4.787-2.793 0-3.272-2.074-3.272-4.787v-21.624h-8.697v25.055c0 4.309 3.67 6.782 7.74 6.782 3.271 0 5.665-.957 7.34-3.75h.16zm-12.208-36.465h6.862v-6.702h-6.862zm10.931 0h6.862v-6.702h-6.862zm-34.948 5.266v31.199h8.697v-16.996c0-3.112.159-7.58 7.819-7.021v-7.74c-3.51 0-6.463 1.037-8.059 4.628h-.159v-3.99h-8.298zm-7.98.32c.559-9.336-5.106-14.443-14.282-14.443-15.241 0-15.799 11.41-15.799 22.661 0 16.916 1.835 23.459 17.474 23.459 3.671 0 10.054-.958 12.607-1.516v-22.661h-14.442v6.862h5.107v9.894c-1.436.479-3.112.878-4.628.878-5.346 0-6.703-2.474-6.703-16.437 0-8.697 0-16.517 5.825-16.517 4.947 0 5.665 3.67 5.586 7.82zm-51.545 30.959v-44.684h-8.697v16.358h-.16c-1.835-2.633-3.99-3.591-7.101-3.591-8.777 0-8.538 9.735-8.538 16.038s-.319 16.437 8.697 16.437c3.351 0 5.745-1.037 7.341-4.069h.16v3.431h8.298zm-12.208-4.788c-3.192 0-3.75-3.271-3.75-11.171 0-6.223 0-10.612 3.75-10.612s3.511 4.309 3.511 10.612c0 7.82-.559 11.171-3.511 11.171m-34.151-26.491h-8.697v31.199h8.697v-21.544c0-2.793.479-4.947 3.271-4.947 2.793 0 3.272 2.154 3.272 4.947v21.544h8.697V372.38c0-4.308-3.67-6.782-7.819-6.782-1.596 0-3.032.239-4.309.878-1.197.558-2.234 1.516-3.112 2.952h-.16v-3.192zm-24.656 31.199h9.017c-.16-1.995-.319-4.149-.319-6.144v-25.055h-8.698v21.624c0 2.793-.478 4.787-3.271 4.787s-3.272-2.074-3.272-4.787v-21.624h-8.697v25.055c0 4.309 3.671 6.782 7.82 6.782 3.271 0 5.665-.957 7.341-3.75h.159v3.112z" data-color="2"/>
        <path fill="#ffffff" d="M987.57 301.837h15.16v-6.304h-15.16zm-5.745-.718c.319-9.974-.958-17.634-12.767-17.634s-12.767 7.261-12.767 15.799c0 9.814 1.516 16.596 12.767 16.596 4.069 0 7.181-1.117 9.256-3.032 2.074-1.915 3.191-4.708 3.351-8.059h-8.857c0 2.633-.638 5.586-3.67 5.586-3.83 0-3.99-5.586-3.99-9.256zm-16.677-4.868c0-2.633 0-7.34 3.91-7.34s4.069 4.308 4.069 7.34zm-24.815-18.671h8.697v-6.862h-8.697zm8.697 6.543h-8.697v31.199h8.697zm-25.134 0v3.671h-.16c-1.197-2.873-3.91-4.229-7.022-4.229-9.096 0-9.176 8.697-9.176 15.559s-.399 15.799 9.176 15.799c2.873 0 5.347-1.197 6.623-3.671h.16v5.985c0 3.191-1.037 5.186-3.192 5.186-1.356 0-2.314-.399-2.952-1.277-.559-.718-.718-1.835-.718-3.111h-8.538c.16 7.58 5.745 9.255 12.208 9.255 11.969 0 11.889-8.537 11.889-10.692v-32.555h-8.298zm-7.82 16.597c0-9.495.559-11.809 3.83-11.809s3.511 3.909 3.511 10.771-.399 9.895-3.591 9.895c-4.229 0-3.75-5.985-3.75-8.857m-27.049 15.24c11.25 0 12.766-6.862 12.766-16.597 0-8.537-1.196-15.798-12.766-15.798s-12.767 7.261-12.767 15.798c0 9.815 1.516 16.597 12.767 16.597m0-5.585c-3.192 0-3.99-2.075-3.99-11.57 0-6.463.319-9.735 3.99-9.735 3.67 0 3.989 3.272 3.989 9.735 0 9.495-.798 11.57-3.989 11.57m-28.725 4.947h8.697v-44.684h-8.697zm-19.948.638c11.25 0 12.766-6.862 12.766-16.597 0-8.537-1.196-15.798-12.766-15.798s-12.767 7.261-12.767 15.798c0 9.815 1.516 16.597 12.767 16.597m0-5.585c-3.192 0-4.07-2.075-4.07-11.57 0-6.463.32-9.735 4.07-9.735s3.989 3.272 3.989 9.735c0 9.495-.798 11.57-3.989 11.57m-34.55-26.252h-8.697v31.199h8.697v-21.544c0-2.793.479-4.947 3.272-4.947s3.271 2.154 3.271 4.947v21.544h8.697v-25.055c0-4.309-3.67-6.782-7.74-6.782-1.595 0-3.032.239-4.308.878q-1.795.837-3.112 2.872h-.16v-3.112zm-15.958 31.199v-25.055c0-4.309-3.671-6.782-7.82-6.782-1.596 0-3.032.239-4.309.878q-1.795.837-3.112 2.872h-.159v-16.597h-8.697v44.684h8.697v-21.544c0-2.793.479-4.947 3.271-4.947 2.793 0 3.272 2.154 3.272 4.947v21.544zm-30.64-20.108c0-8.139-4.548-11.729-12.607-11.729-11.49 0-12.767 7.261-12.767 15.799 0 9.814 1.516 16.596 12.767 16.596 8.138 0 12.766-3.67 12.766-12.128h-8.697c0 4.069-1.277 6.543-4.069 6.543-3.192 0-3.99-2.075-3.99-11.57 0-6.463.319-9.735 3.99-9.735 2.712 0 3.909 1.516 3.909 6.144h8.698zm-31.119 5.905c.319-9.974-.958-17.634-12.767-17.634s-12.766 7.261-12.766 15.799c0 9.814 1.516 16.596 12.766 16.596 4.07 0 7.182-1.117 9.176-3.032 2.075-1.915 3.192-4.708 3.352-8.059h-8.857c0 2.633-.639 5.586-3.671 5.586-3.83 0-3.989-5.586-3.989-9.256zm-16.677-4.868c0-2.633 0-7.34 3.99-7.34s3.99 4.308 3.99 7.34zm-37.821-25.533v7.421h10.373v37.262h9.336v-37.262h10.373v-7.421h-30.162zm-31.837 13.405v31.199h8.698v-16.996c0-3.112.159-7.58 7.819-7.022v-7.819c-3.511 0-6.463 1.037-8.139 4.628h-.159v-3.99h-8.299zm-6.463 16.996c.319-9.974-.957-17.634-12.766-17.634-11.81 0-12.767 7.261-12.767 15.799 0 9.814 1.516 16.596 12.767 16.596 4.069 0 7.181-1.117 9.176-3.032 2.074-1.915 3.191-4.708 3.351-8.059h-8.857c0 2.633-.638 5.586-3.67 5.586-3.83 0-3.99-5.586-3.99-9.256zm-16.676-4.868c0-2.633 0-7.34 3.989-7.34 3.99 0 3.99 4.308 3.99 7.34zm-23.698-12.128v3.671h-.16c-1.197-2.873-3.91-4.229-7.022-4.229-9.096 0-9.176 8.697-9.176 15.559s-.399 15.799 9.176 15.799c2.873 0 5.346-1.197 6.623-3.671h.16v5.985c0 3.191-1.038 5.186-3.192 5.186-1.357 0-2.314-.399-2.952-1.277-.559-.718-.718-1.835-.718-3.111h-8.538c.159 7.58 5.745 9.255 12.288 9.255 11.969 0 11.889-8.537 11.889-10.692v-32.555h-8.299zm-7.82 16.597c0-9.495.558-11.809 3.83-11.809 3.271 0 3.511 3.909 3.511 10.771s-.399 9.895-3.591 9.895c-4.229 0-3.75-5.985-3.75-8.857m-30.321-16.597h-8.697v31.199h8.697v-21.544c0-2.793.479-4.947 3.272-4.947s3.271 2.154 3.271 4.947v21.544h8.697v-25.055c0-4.309-3.67-6.782-7.739-6.782-1.596 0-3.033.239-4.309.878q-1.795.837-3.112 2.872h-.16v-3.112zm-25.453-6.543h8.697v-6.862h-8.697zm8.697 6.543h-8.697v31.199h8.697zm-16.677 31.199v-25.055c0-4.309-3.67-6.782-7.819-6.782-1.596 0-3.032.239-4.309.878q-1.795.837-3.112 2.872h-.159v-16.597h-8.698v44.684h8.698v-21.544c0-2.793.478-4.947 3.271-4.947s3.272 2.154 3.272 4.947v21.544zm-30.64-20.108c0-8.139-4.548-11.729-12.607-11.729-11.49 0-12.766 7.261-12.766 15.799 0 9.814 1.516 16.596 12.766 16.596 8.139 0 12.767-3.67 12.767-12.128h-8.697c0 4.069-1.277 6.543-3.99 6.543-3.192 0-4.069-2.075-4.069-11.57 0-6.463.319-9.735 4.069-9.735 2.713 0 3.91 1.516 3.91 6.144h8.697zm-45.481-11.091v31.199h8.697v-16.996c0-3.112.16-7.58 7.82-7.022v-7.819c-3.511 0-6.463 1.037-8.139 4.628h-.159v-3.99h-8.299zm-7.58 9.815c0-5.666-1.436-10.453-12.527-10.453-3.352 0-6.144.558-8.139 2.074-1.995 1.437-3.192 3.83-3.192 7.581h8.538c0-2.474.239-4.788 3.271-4.788s3.511 1.915 3.511 4.548v2.394c-8.139-.16-16.118.319-16.118 10.612 0 5.426 2.234 9.974 8.299 9.974 3.75 0 6.303-1.516 8.138-4.787h.16l.399 4.149h8.139c-.16-1.915-.399-3.91-.399-5.825v-15.559zm-8.538 6.303c0 3.431.798 10.293-4.309 10.293-2.872 0-3.191-2.713-3.191-4.947 0-5.585 3.191-5.186 7.58-5.346m-23.14-15.799c.559-9.335-5.106-14.442-14.282-14.442-15.241 0-15.799 11.41-15.799 22.661 0 16.916 1.755 23.459 17.474 23.459 3.751 0 10.054-.958 12.607-1.516v-22.661H393.6v6.862h5.107v9.894c-1.436.479-3.112.878-4.628.878-5.346 0-6.703-2.474-6.703-16.437 0-8.618 0-16.517 5.825-16.517 4.947 0 5.665 3.67 5.586 7.819z" data-color="2"/>
        <path fill="#E66110" d="M305.363 0H0v475h305.363z" data-color="1"/>
        <path fill="#ffffff" d="M256.128 367.935h-24.177c.159-3.99.239-5.267.798-6.703 1.436-3.192 3.989-4.069 11.41-4.069 9.974 0 11.729 1.436 11.969 8.936zm-.16 13.644c-.16 6.224-1.915 7.261-11.729 7.261s-12.448-2.234-12.448-12.288v-1.436h37.422c0-9.974-.239-12.288-1.196-15.48-2.713-8.138-8.857-11.011-23.699-11.011-20.825 0-26.091 4.788-26.091 24.097s4.947 24.656 26.57 24.656c18.911 0 24.416-3.591 24.416-15.799z" data-color="2"/>
        <path fill="#ffffff" d="M205.225 349.167H184.16v-10.612h-13.405v10.612h-7.261v8.617h7.261v25.374c0 4.389.24 5.905 1.277 7.82 2.234 4.468 7.022 6.224 16.597 6.224 8.378 0 13.006-1.357 15.878-4.469 2.234-2.633 2.952-5.106 2.952-11.649v-2.713h-11.25c.159.798.159 1.516.159 1.915 0 6.463-1.276 8.139-6.383 8.139-4.708 0-5.825-1.357-5.825-6.783v-23.778h21.065z" data-color="2"/>
        <path fill="#ffffff" d="M126.709 375.338c9.735 0 12.448 1.516 12.448 6.942s-2.953 6.942-12.049 6.942c-9.575 0-11.809-1.357-11.809-7.102 0-5.346 2.234-6.702 11.49-6.702m-9.336-12.448c.24-5.665 1.915-6.782 10.533-6.782s11.171 1.835 11.171 9.336v7.739h-.24c-2.234-4.308-6.064-5.505-16.836-5.505-14.841 0-20.347 4.069-20.347 15.08 0 11.012 5.426 14.522 20.108 14.522 10.532 0 14.602-1.675 17.554-7.101h.319l-.558 6.543h13.405v-31.039c0-13.086-5.666-17.075-24.736-17.075-11.968 0-17.554 1.117-20.746 4.149-2.234 2.234-3.111 4.707-3.111 10.133z" data-color="2"/>
        <path fill="#ffffff" d="M61.52 357.703c10.532 0 12.527 2.314 12.527 14.443 0 8.218-.48 10.772-2.394 12.926-1.756 1.835-4.947 2.713-10.213 2.713-10.054 0-11.81-2.314-11.81-15.24s1.676-14.842 11.81-14.842m26.171-8.537H74.206l.559 7.819h-.24c-3.111-6.303-7.5-8.458-17.314-8.458-7.102 0-12.448 1.437-15.64 4.15-4.228 3.67-5.665 8.617-5.665 19.628 0 11.012 1.038 15.719 4.628 19.31 3.192 3.351 9.336 5.346 16.916 5.346 9.016 0 13.964-2.394 16.437-7.66h.24v10.692c0 6.782-2.953 8.937-12.288 8.937s-11.012-1.117-11.012-7.421H37.901c.16 5.186.479 7.101 1.436 9.016 2.474 5.107 9.017 7.182 21.704 7.182 20.506 0 26.57-4.548 26.57-20.267v-48.434z" data-color="2"/>
        <path fill="#ffffff" d="M152.239 244.488c-59.285 0-104.288 35.268-120.565 49.95L52.18 308.88c4.548-4.867 48.354-56.971 100.059-56.971s95.511 52.104 100.059 56.971l21.623-15.16c-13.484-13.645-51.944-49.232-121.682-49.232" data-color="2"/>
    </g>
</svg>
