<?xml version="1.0" encoding="UTF-8"?>
<svg data-bbox="-0.004 0 500.144 193.58" viewBox="0 0 500.21 193.65" xmlns="http://www.w3.org/2000/svg" data-type="color">
    <g>
        <path d="m403.21 107.58 43 43-43 43-43-43Zm10.93-10.93 43 43 43-43-43-43ZM360.17 43l43 43 43-43-43-43Z" fill="#010101" data-color="1"/>
        <path d="M22.79 141.44c0 7.83-4.65 13.18-11.12 13.18a9.34 9.34 0 0 1-7.21-3h-.24v11.86a.67.67 0 0 1-.73.74H.74a.67.67 0 0 1-.74-.74l.19-33.44a.68.68 0 0 1 .74-.74h2.48a.67.67 0 0 1 .74.74v2.83h.27a9.28 9.28 0 0 1 7.94-4.15c6.24.01 10.43 5.28 10.43 12.72M4 140.28v3.1c.47 5.08 3.57 7.59 7.44 7.59 4.62 0 7.29-3.52 7.29-9.22 0-5.85-3-9.46-7.36-9.46-3.85.04-6.99 2.87-7.37 7.99" fill="#010101" data-color="1"/>
        <path d="M50.11 132.91a.67.67 0 0 1-.73.74c-4 .16-7.17 1.63-7.52 7.36v12.83a.68.68 0 0 1-.74.74h-2.75a.67.67 0 0 1-.74-.74l.2-23.21a.67.67 0 0 1 .73-.74H41a.67.67 0 0 1 .74.74v3.1h.31a9.62 9.62 0 0 1 7.25-4.42.63.63 0 0 1 .73.7v2.86Z" fill="#010101" data-color="1"/>
        <path d="M85.85 141.36c0 7.68-5 13.26-11.82 13.26-6.59 0-11.48-5.35-11.48-12.83 0-7.71 5-13 11.86-13 6.59-.06 11.44 5.02 11.44 12.57m-19.27 0c0 5.78 3.45 9.54 7.83 9.54s7.41-3.65 7.41-9.11c0-5.85-3.42-9.5-7.83-9.5s-7.41 3.53-7.41 9.11Z" fill="#010101" data-color="1"/>
        <path d="M112.47 132.6a.67.67 0 0 1-.73.74h-4.5l.08 20.5a.67.67 0 0 1-.74.74h-2.79a.68.68 0 0 1-.74-.74l.08-20.5h-3.72a.68.68 0 0 1-.74-.74v-1.93a.68.68 0 0 1 .74-.74h3.72v-8.88a.67.67 0 0 1 .74-.73h2.48a.67.67 0 0 1 .73.73v8.88h4.58a.67.67 0 0 1 .73.74Z" fill="#010101" data-color="1"/>
        <path d="M148.17 141.36c0 7.68-5 13.26-11.82 13.26-6.59 0-11.48-5.35-11.48-12.83 0-7.71 5-13 11.86-13 6.63-.06 11.44 5.02 11.44 12.57m-19.23 0c0 5.78 3.45 9.54 7.83 9.54s7.4-3.65 7.4-9.11c0-5.85-3.41-9.5-7.82-9.5s-7.41 3.53-7.41 9.11Z" fill="#010101" data-color="1"/>
        <path d="M174.79 132.6a.67.67 0 0 1-.73.74h-4.5l.08 20.5a.67.67 0 0 1-.74.74h-2.79a.68.68 0 0 1-.74-.74l.08-20.5h-3.72a.68.68 0 0 1-.74-.74v-1.93a.68.68 0 0 1 .74-.74h3.72v-8.88a.67.67 0 0 1 .74-.73h2.48a.67.67 0 0 1 .73.73v8.88h4.58a.67.67 0 0 1 .73.74Z" fill="#010101" data-color="1"/>
        <path d="M207.7 129.31c.5 0 .73.31.62.85l-11.71 33.49a.87.87 0 0 1-.89.62h-2.79c-.54 0-.77-.31-.62-.85l3-8.34-8.83-24.92a.59.59 0 0 1 .62-.85h2.4a.79.79 0 0 1 .85.62l6.75 19.53h.31l7.05-19.53a.87.87 0 0 1 .89-.62Z" fill="#010101" data-color="1"/>
        <path d="M245.14 141.44c0 7.83-4.66 13.18-11.13 13.18a9.35 9.35 0 0 1-7.21-3h-.23v11.86a.67.67 0 0 1-.74.74h-2.79a.67.67 0 0 1-.73-.74l.19-33.44a.67.67 0 0 1 .74-.74h2.48a.67.67 0 0 1 .73.74v2.83h.27a9.31 9.31 0 0 1 7.95-4.15c6.33.01 10.47 5.28 10.47 12.72m-18.84-1.16v3.1c.46 5.08 3.57 7.59 7.44 7.59 4.61 0 7.29-3.52 7.29-9.22 0-5.85-3-9.46-7.37-9.46-3.76.04-6.93 2.87-7.36 7.99" fill="#010101" data-color="1"/>
        <path d="M280.83 141.48c0 .5-.27.74-.77.74h-17.41c0 5.42 3 8.75 7.68 8.75a6.43 6.43 0 0 0 6-3.29.84.84 0 0 1 .89-.5h2.36c.54 0 .78.38.62.89a10.6 10.6 0 0 1-10.2 6.55c-6.75 0-11.44-5.16-11.44-12.79s4.81-13 11.71-13c7.19-.02 10.79 5.6 10.56 12.65M262.89 139h13.79c-.15-3.65-2.52-6.67-6.74-6.67s-6.39 2.99-7.05 6.67" fill="#010101" data-color="1"/>
        <path d="M313.81 134.89c.2.5-.08.85-.62.85h-2.4a1 1 0 0 1-.93-.5c-1.16-1.82-2.95-2.87-5.78-2.87s-4.84 1.36-4.84 3.33 1.86 2.72 5.39 3.72l1.9.55c5.58 1.63 7.82 3.8 7.82 7.21 0 4.57-3.72 7.44-9.49 7.44s-9.11-3-10.43-6.75c-.19-.5 0-.85.62-.85h2.76a1 1 0 0 1 .89.54c1.2 2.37 3.45 3.41 6.43 3.41s5.12-1 5.12-3.44c0-2-1.67-3.11-5.62-4.27l-1.86-.54c-4.42-1.24-7.48-3-7.48-6.74 0-4.27 3.91-7.21 9.07-7.21 5.58-.04 8.52 3.17 9.45 6.12" fill="#010101" data-color="1"/>
        <path fill="#010101" d="M15.18 59.53v45.57H0V59.53z" data-color="1"/>
        <path fill="#010101" d="M60.79 83.02 19.43 29.14H0L19.43 52.9l41.36 52.2h15.18V29.14H60.79z" data-color="1"/>
        <path fill="#010101" d="M167.14 29.14v15.18H91.18V29.14z" data-color="1"/>
        <path fill="#010101" d="M91.18 65.58v39.52h75.97V89.92h-60.79V74.71h60.79V59.53H91.18z" data-color="1"/>
        <path fill="#010101" d="m182.32 29.14 19.04 25.4h18.96l-19-25.4z" data-color="1"/>
        <path fill="#010101" d="m239.29 29.14-18.97 25.4-9.51 12.6-28.49 37.96h19l19-25.4 18.97 25.4h19l-28.48-37.96 28.48-38z" data-color="1"/>
        <path fill="#010101" d="M314.36 51.92v53.18h-15.18V51.92z" data-color="1"/>
        <path fill="#010101" d="M344.78 29.14v15.18h-75.96V29.14z" data-color="1"/>
    </g>
</svg>
